inDegrees=no
num_controls=7
num_derivatives=13
num_iterations=79
num_multipliers=7
num_parameters=0
num_slacks=7
num_states=26
objective=0.334215
objective_accelerations=0.036439
objective_balance=0.001228
objective_effort=0.027284
objective_height=0.267615
objective_ligament=0.001650
solver_duration=825.826735
status=Solve_Succeeded
success=true
DataType=double
version=3
OpenSimVersion=4.5
endheader
time	/jointset/ground_pelvis/pelvis_tilt/value	/jointset/ground_pelvis/pelvis_tx/value	/jointset/ground_pelvis/pelvis_ty/value	/jointset/hip_r/hip_flexion_r/value	/jointset/hip_r/hip_adduction_r/value	/jointset/hip_r/hip_rotation_r/value	/jointset/back/lumbar_extension/value	/jointset/patellofemoral_r/patellar_flexion_r/value	/jointset/knee_r/knee_flexion_r/value	/jointset/knee_r/knee_adduction_r/value	/jointset/knee_r/knee_rotation_r/value	/jointset/ankle_r/ankle_angle_r/value	/jointset/subtalar_r/subtalar_angle_r/value	/jointset/ground_pelvis/pelvis_tilt/speed	/jointset/ground_pelvis/pelvis_tx/speed	/jointset/ground_pelvis/pelvis_ty/speed	/jointset/hip_r/hip_flexion_r/speed	/jointset/hip_r/hip_adduction_r/speed	/jointset/hip_r/hip_rotation_r/speed	/jointset/back/lumbar_extension/speed	/jointset/patellofemoral_r/patellar_flexion_r/speed	/jointset/knee_r/knee_flexion_r/speed	/jointset/knee_r/knee_adduction_r/speed	/jointset/knee_r/knee_rotation_r/speed	/jointset/ankle_r/ankle_angle_r/speed	/jointset/subtalar_r/subtalar_angle_r/speed	/forceset/tau_hip_flexion_r	/forceset/tau_hip_adduction_r	/forceset/tau_hip_rotation_r	/forceset/tau_knee_flexion_r	/forceset/tau_ankle_angle_r	/forceset/tau_subtalar_angle_r	/forceset/tau_lumbar_extension	lambda_cid13_p0	lambda_cid14_p0	lambda_cid14_p1	lambda_cid14_p2	lambda_cid14_p3	lambda_cid14_p4	lambda_cid14_p5	/jointset/ground_pelvis/pelvis_tilt/accel	/jointset/ground_pelvis/pelvis_tx/accel	/jointset/ground_pelvis/pelvis_ty/accel	/jointset/hip_r/hip_flexion_r/accel	/jointset/hip_r/hip_adduction_r/accel	/jointset/hip_r/hip_rotation_r/accel	/jointset/back/lumbar_extension/accel	/jointset/patellofemoral_r/patellar_flexion_r/accel	/jointset/knee_r/knee_flexion_r/accel	/jointset/knee_r/knee_adduction_r/accel	/jointset/knee_r/knee_rotation_r/accel	/jointset/ankle_r/ankle_angle_r/accel	/jointset/subtalar_r/subtalar_angle_r/accel	gamma_cid13_p0	gamma_cid14_p0	gamma_cid14_p1	gamma_cid14_p2	gamma_cid14_p3	gamma_cid14_p4	gamma_cid14_p5
0.5	-0.1712042735137869	0.03165260618060384	0.8061037813238047	0.9133838425306914	-0.2391075844925426	-0.08501174777742464	-0.6474008817857346	0.9521528794900551	0.9521528794900761	0.01277610567412438	0.1745166779840819	0.2921304799994053	0.112036686534986	-0.4312394857162739	-0.2036024384476673	-0.4990436837255183	1.929782478960921	-0.01284614344310425	0.3282329952457296	-0.7369740739046041	1.929594574605831	1.929594574605831	-0.3052506414502104	-2.231128040635605e-05	0.5279908072149748	0.1682545474742062	-0.2139680141963996	0.02075641565343793	0.02597147516038429	-0.2674061039822919	-0.01925787765661647	-0.01222018464198303	0.2488749999789831	-8.251328642855283	-49.17309496045325	-12.84793274603351	1.24902338533357	-2.949401606041284	-640.2414430485649	49.69350815430315	0.3424080255662992	0.5844264927682159	-0.4249339733047493	-1.285220533664195	-0.1031924059579387	-0.2325520903804165	1.814209061734067	-1.334994903046834	-1.334994903046834	0.7067680389437958	-0.05982704103974294	-0.5393051196278656	-0.19686424759764	-2.694851893670608e-08	1.452695389635428e-07	2.456334578259131e-06	1.306254720380445e-06	-3.558489966545758e-07	-3.146582200214231e-08	1.557185885561223e-06
0.51	-0.1754986006375461	0.0296459795794151	0.8010932585157439	0.9326143913962248	-0.2392413102113888	-0.08174486305689103	-0.6546793331993886	0.9713790090240519	0.9713790090240485	0.009756791506360352	0.1745163012500101	0.2973824723690304	0.1137088779990285	-0.4275553683170696	-0.1977063510882028	-0.5029490667084331	1.916067767382471	-0.01388625776238584	0.3251203528305531	-0.7186275361175202	1.915368670184962	1.915368670184961	-0.2986155123590251	-4.920029311107413e-05	0.5223315124632406	0.1661670695414059	-0.2209619310644782	0.02224541710461187	0.02599868845255852	-0.2715995517014441	-0.0209120865183591	-0.01179998416958075	0.2551881343236785	-7.30387132328562	-50.01397731789275	-12.96274295283641	1.438743603231706	-2.825115376915074	-645.270832334268	49.70497604292984	0.3920151103794085	0.5946074764187134	-0.3565763642864727	-1.453505471670142	-0.1021726610684467	-0.3542033659031264	1.85817704348762	-1.505781434782631	-1.505781434782641	0.6417310446040044	0.02677635429447903	-0.5907450460317529	-0.2166458550949376	-2.959157887387417e-08	1.393105868016652e-07	2.43344655856302e-06	1.222932362183574e-06	-3.505013267379129e-07	-4.111513862786637e-08	1.594477910551485e-06
0.52	-0.179753966284657	0.02769879537559763	0.7960470346971535	0.9517000113456284	-0.2393849874166586	-0.07850982137027145	-0.6617716590539132	0.9904550008692071	0.9904550008691749	0.00680379776960138	0.1745158348629436	0.3025755711125205	0.1153598034259484	-0.4234471903865885	-0.1917139589734139	-0.5061838858314082	1.900796695734633	-0.0148364407278769	0.3218643884627031	-0.6997489620787534	1.899567036837066	1.899567036837065	-0.2919865552519176	-4.024187860269176e-05	0.5162120819880842	0.1640013400496575	-0.2279558479325463	0.02373441855579225	0.02602590174467794	-0.2757929994205982	-0.0225662953801004	-0.01137978369716712	0.2615012686683827	-6.416548416749694	-50.85311352511557	-13.0730904701992	1.62300548889206	-2.7198832334971	-650.2802990270012	49.71968350451212	0.4272201318216527	0.6036874438330774	-0.2908212013167654	-1.596492547541743	-0.08520613519984151	-0.2612164809151405	1.920616312070615	-1.650140688452197	-1.650140688452196	0.7055336421282098	-0.05265755559711166	-0.6313322643122873	-0.21251455938727	-2.79770873721874e-08	1.302509485478855e-07	2.297478817015553e-06	1.107031874583984e-06	-3.314475726778959e-07	-4.760868986955317e-08	1.558574831384005e-06
0.53	-0.18396619550279	0.02581195993471676	0.7909718437943465	0.9706252677088465	-0.23953788095102	-0.07530712598219383	-0.6686726617752975	1.009365285003045	1.009365285003019	0.00391796906889412	0.1745152511297053	0.3077051974736051	0.1169883977149134	-0.4189302664812382	-0.185641824177078	-0.5087386190627269	1.883999923221405	-0.0157388686261962	0.3186977648780833	-0.6803794705747241	1.882239945582848	1.882239945582847	-0.2851273569571447	-8.177875890291061e-05	0.5096403072077474	0.1616848793105838	-0.2347879805991453	0.02507867446494366	0.02595947940255804	-0.2801990677770814	-0.02412902553230521	-0.01096808531490744	0.2676520537294136	-5.590120626482537	-51.67159753509917	-13.18045076059881	1.80329021917918	-2.585731909890043	-655.3820757159652	49.765733935832	0.4742006541586845	0.6106079634757684	-0.2204582378379913	-1.759450236246016	-0.09197710525657724	-0.3409769480860587	1.955932313066887	-1.811464570218298	-1.81146457021841	0.6841819342140358	0.01958162808493985	-0.6811027702172957	-0.245633637670287	-3.485625757303171e-08	1.101644759885865e-07	2.11886166544913e-06	8.987197636259919e-07	-3.015555867389563e-07	-5.759305451752068e-08	1.472324018332999e-06
0.54	-0.1881312010550162	0.02398617213498765	0.7858745737884665	0.989374920220327	-0.2396996419619859	-0.07213541516013328	-0.6753778062329419	1.028094803979077	1.028094803979059	0.001102346153347184	0.1745141487041306	0.3127669055498216	0.118592943035187	-0.4140024572052082	-0.1795044307430655	-0.5105997064459834	1.865675925386868	-0.01660993604885921	0.3156674752594369	-0.6605773093307821	1.86341400527616	1.863414005276158	-0.2779453982198845	-0.0001439803459464473	0.5026284250144939	0.1591915463113952	-0.2416201132657362	0.02642293037409391	0.02589305706043846	-0.2846051361335635	-0.02569175568451107	-0.01055638693265009	0.2738028387904518	-4.824779039542439	-52.48863081401431	-13.28279904451726	1.977342748680501	-2.474038882434103	-660.4724244372572	49.82122286380371	0.5093972059576082	0.6167391713684047	-0.1520920317043356	-1.901937611803604	-0.07893404006859021	-0.2339496877204701	2.007150260053163	-1.949910498946351	-1.949910498946349	0.770085730625663	-0.05679049694576012	-0.7193537468956154	-0.2478890114102793	-5.113267050859136e-08	7.787810164445758e-08	1.893057932585139e-06	5.881650055480628e-07	-2.596723655297194e-07	-7.143959570009672e-08	1.330369329495964e-06
0.55	-0.1922449638987201	0.02222201208856424	0.7807621696235801	1.007933906811844	-0.2398699278695456	-0.06899298790772707	-0.6818828861419451	1.046628748824069	1.046628748824068	-0.001639702914380353	0.1745120778927022	0.3177563593175154	0.1201717056471883	-0.4086869580796786	-0.1733232876198554	-0.511763522839132	1.84588053931902	-0.01742599992746683	0.3127681120122813	-0.6403824095949915	1.843131567916599	1.843131567916598	-0.2705033780194217	-0.000259898240532595	0.4951988937139802	0.1565599993000186	-0.2482725153537484	0.02771141046838872	0.02572577965243551	-0.2890923734388757	-0.02729711449138598	-0.01017178753662617	0.2797495025199406	-4.120294806877625	-53.32423023077067	-13.39807021267639	2.151059105158834	-2.281212209372239	-665.5578545017405	49.86163508537475	0.5521058528315514	0.6193981556650635	-0.08090168774951277	-2.054458947880243	-0.07960281331466275	-0.3255083913269166	2.034099261562382	-2.103907723171037	-2.103907723170914	0.7256475271853303	0.01269126907838787	-0.76432431874547	-0.2706062272633749	-7.439401666781506e-08	3.384135694531254e-08	1.596837592987762e-06	1.808362790497964e-07	-2.030644075958899e-07	-9.040156920730941e-08	1.113007168761769e-06
0.5600000000000001	-0.1963036758337729	0.02051978272794649	0.7756416522458365	1.026287715573962	-0.2400477064662032	-0.06588107003741463	-0.6881843291673462	1.064952569821725	1.064952569821738	-0.004308454307610302	0.1745091846432849	0.3226696034727807	0.1217241890528233	-0.4029922754749116	-0.167118293581936	-0.5122223490174512	1.82464035950698	-0.01810847386838711	0.3095655988405731	-0.6198499326103849	1.821389235808635	1.821389235808635	-0.26328586332181	-0.0003084679433815338	0.4873865025288177	0.153935705038161	-0.2549249174417528	0.02899989056268483	0.02555850224440635	-0.2935796107441885	-0.02890247329826094	-0.009787188140599203	0.2856961662494365	-3.476269767347305	-54.15880565289592	-13.50766158045397	2.317587729166022	-2.114828235358676	-670.6415035753862	49.92564547761511	0.5852339018050849	0.6215093543102527	-0.01109398873848279	-2.190896360642018	-0.05221605253112784	-0.2945796726310306	2.074665709816357	-2.241889448626778	-2.241889448626782	0.7251846300554541	-0.04332085859830139	-0.7959257238253704	-0.2464384615065188	-1.060372826954353e-07	-2.429583217985129e-08	1.216117325310326e-06	-3.426212095528709e-07	-1.287867655925499e-07	-1.155020615040859e-07	8.051560417509871e-07
